<?xml version="1.0" encoding="UTF-8"?>
<svg xmlns="http://www.w3.org/2000/svg" width="1000" height="1500" viewBox="0 0 1000 1500">
<defs><linearGradient id="bg-creator" x1="0" y1="0" x2="0" y2="1"><stop offset="0" stop-color="#eef7f5"/><stop offset="1" stop-color="#fff6ec"/></linearGradient><filter id="shadow-creator" x="-20%" y="-20%" width="140%" height="140%"><feDropShadow dx="0" dy="22" stdDeviation="22" flood-color="#263036" flood-opacity="0.18"/></filter><filter id="shadow-gift" x="-20%" y="-20%" width="140%" height="140%"><feDropShadow dx="0" dy="20" stdDeviation="20" flood-color="#263036" flood-opacity="0.16"/></filter></defs>
<rect width="1000" height="1500" fill="url(#bg-creator)"/><circle cx="170" cy="480" r="310" fill="#8fcab9" opacity="0.95"/><circle cx="840" cy="590" r="250" fill="#f3b46f" opacity="0.92"/>
<g filter="url(#shadow-creator)"><rect x="72" y="64" width="58" height="58" rx="18" fill="#ffffff"/><text x="101" y="105" text-anchor="middle" font-size="34" font-weight="900" fill="#e14f6f" font-family="Inter, Arial, sans-serif">W</text></g><text x="148" y="105" font-size="34" font-weight="800" fill="#15272d" font-family="Inter, Arial, sans-serif">Wishees</text>
<g filter="url(#shadow-creator)"><rect x="180" y="400" width="640" height="350" rx="34" fill="#23353a"/><rect x="214" y="434" width="572" height="282" rx="20" fill="#ffffff"/><rect x="282" y="512" width="350" height="26" rx="13" fill="#d9e8e4"/><rect x="282" y="566" width="460" height="26" rx="13" fill="#d9e8e4"/><rect x="282" y="620" width="280" height="26" rx="13" fill="#f1c994"/></g>
<text x="72" y="890" font-size="30" font-weight="750" fill="#e14f6f" font-family="Inter, Arial, sans-serif">For gift guide creators</text>
<text x="72" y="965" font-size="78" font-weight="850" fill="#15272d" font-family="Inter, Arial, sans-serif">A shareable</text>
<text x="72" y="1039" font-size="78" font-weight="850" fill="#15272d" font-family="Inter, Arial, sans-serif">wishlist layer</text>
<text x="72" y="1137" font-size="32" font-weight="570" fill="#33494f" font-family="Inter, Arial, sans-serif">Give readers a gift-list moment.</text>
<text x="72" y="1176" font-size="32" font-weight="570" fill="#33494f" font-family="Inter, Arial, sans-serif">Your marketplace affiliate tags</text>
<text x="72" y="1215" font-size="32" font-weight="570" fill="#33494f" font-family="Inter, Arial, sans-serif">stay yours.</text>
<g filter="url(#shadow-creator)"><rect x="72" y="1378" width="441" height="64" rx="32" fill="#ffffff"/></g><text x="102" y="1420" font-size="31" font-weight="800" fill="#15272d" font-family="Inter, Arial, sans-serif">Wishees.com/affiliate</text>
</svg>