<?xml version="1.0" encoding="UTF-8"?>
<svg xmlns="http://www.w3.org/2000/svg" width="1000" height="1500" viewBox="0 0 1000 1500">
  <defs>
    <linearGradient id="bg" x1="0" y1="0" x2="0" y2="1">
      <stop offset="0" stop-color="#f6fff7"/>
      <stop offset="1" stop-color="#fff6f0"/>
    </linearGradient>
    <filter id="shadow" x="-20%" y="-20%" width="140%" height="140%">
      <feDropShadow dx="0" dy="22" stdDeviation="22" flood-color="#253238" flood-opacity="0.16"/>
    </filter>
  </defs>
  <rect width="1000" height="1500" fill="url(#bg)"/>
  <rect x="0" y="0" width="1000" height="420" fill="#cfead6"/>
  <path d="M0 420 L1000 290 L1000 590 L0 720 Z" fill="#f6c3a3"/>
  <g filter="url(#shadow)">
    <rect x="72" y="64" width="58" height="58" rx="18" fill="#ffffff"/>
    <text x="101" y="105" text-anchor="middle" font-size="34" font-weight="900" fill="#e14f6f" font-family="Inter, Arial, sans-serif">W</text>
  </g>
  <text x="148" y="105" font-size="34" font-weight="800" fill="#15272d" font-family="Inter, Arial, sans-serif">Wishees</text>
  <g filter="url(#shadow)">
    <rect x="140" y="300" width="720" height="540" rx="42" fill="#ffffff"/>
    <text x="198" y="388" font-size="39" font-weight="850" fill="#15272d" font-family="Inter, Arial, sans-serif">Class gift list</text>
    <rect x="198" y="450" width="604" height="2" fill="#e8eef0"/>
    <circle cx="230" cy="520" r="20" fill="#6fb7ad"/>
    <rect x="272" y="502" width="410" height="32" rx="16" fill="#33494f" opacity="0.14"/>
    <circle cx="230" cy="602" r="20" fill="#e14f6f"/>
    <rect x="272" y="584" width="500" height="32" rx="16" fill="#33494f" opacity="0.14"/>
    <circle cx="230" cy="684" r="20" fill="#f0b84a"/>
    <rect x="272" y="666" width="340" height="32" rx="16" fill="#33494f" opacity="0.14"/>
    <rect x="198" y="748" width="282" height="54" rx="27" fill="#15272d"/>
    <text x="339" y="785" text-anchor="middle" font-size="25" font-weight="800" fill="#ffffff" font-family="Inter, Arial, sans-serif">Share one link</text>
  </g>
  <text x="72" y="1012" font-size="30" font-weight="750" fill="#e14f6f" font-family="Inter, Arial, sans-serif">Group gifts</text>
  <text x="72" y="1088" font-size="72" font-weight="850" fill="#15272d" font-family="Inter, Arial, sans-serif">Class gifts without</text>
  <text x="72" y="1164" font-size="72" font-weight="850" fill="#15272d" font-family="Inter, Arial, sans-serif">the group chat mess</text>
  <text x="72" y="1258" font-size="33" font-weight="570" fill="#33494f" font-family="Inter, Arial, sans-serif">Use one simple wishlist for class</text>
  <text x="72" y="1298" font-size="33" font-weight="570" fill="#33494f" font-family="Inter, Arial, sans-serif">birthdays, teacher thank-yous,</text>
  <text x="72" y="1338" font-size="33" font-weight="570" fill="#33494f" font-family="Inter, Arial, sans-serif">and shared gift ideas.</text>
  <g filter="url(#shadow)">
    <rect x="72" y="1390" width="251" height="64" rx="32" fill="#ffffff"/>
  </g>
  <text x="102" y="1432" font-size="31" font-weight="800" fill="#15272d" font-family="Inter, Arial, sans-serif">Wishees.com</text>
</svg>
