<?xml version="1.0" encoding="UTF-8"?>
<svg xmlns="http://www.w3.org/2000/svg" width="1000" height="1500" viewBox="0 0 1000 1500">
<defs><linearGradient id="bg-kids" x1="0" y1="0" x2="0" y2="1"><stop offset="0" stop-color="#fff8e6"/><stop offset="1" stop-color="#eef8ff"/></linearGradient><filter id="shadow-kids" x="-20%" y="-20%" width="140%" height="140%"><feDropShadow dx="0" dy="22" stdDeviation="22" flood-color="#263036" flood-opacity="0.18"/></filter><filter id="shadow-gift" x="-20%" y="-20%" width="140%" height="140%"><feDropShadow dx="0" dy="20" stdDeviation="20" flood-color="#263036" flood-opacity="0.16"/></filter></defs>
<rect width="1000" height="1500" fill="url(#bg-kids)"/><circle cx="170" cy="480" r="310" fill="#f7c45e" opacity="0.95"/><circle cx="840" cy="590" r="250" fill="#7cc5d9" opacity="0.92"/>
<g filter="url(#shadow-kids)"><rect x="72" y="64" width="58" height="58" rx="18" fill="#ffffff"/><text x="101" y="105" text-anchor="middle" font-size="34" font-weight="900" fill="#e14f6f" font-family="Inter, Arial, sans-serif">W</text></g><text x="148" y="105" font-size="34" font-weight="800" fill="#15272d" font-family="Inter, Arial, sans-serif">Wishees</text>
<g filter="url(#shadow-kids)"><rect x="155" y="475" width="188" height="188" rx="26" fill="#e14f6f" transform="rotate(-8 249 569)"/><text x="249" y="594" text-anchor="middle" font-size="70" font-weight="900" fill="#ffffff" font-family="Inter, Arial, sans-serif">B</text><rect x="385" y="330" width="188" height="188" rx="26" fill="#2c9d8f" transform="rotate(5 479 424)"/><text x="479" y="449" text-anchor="middle" font-size="70" font-weight="900" fill="#ffffff" font-family="Inter, Arial, sans-serif">D</text><rect x="657" y="530" width="188" height="188" rx="26" fill="#4267b2" transform="rotate(9 751 624)"/><text x="751" y="649" text-anchor="middle" font-size="70" font-weight="900" fill="#ffffff" font-family="Inter, Arial, sans-serif">Y</text></g>
<text x="72" y="890" font-size="30" font-weight="750" fill="#e14f6f" font-family="Inter, Arial, sans-serif">Kids birthday wishlist</text>
<text x="72" y="965" font-size="72" font-weight="850" fill="#15272d" font-family="Inter, Arial, sans-serif">Help family pick</text>
<text x="72" y="1039" font-size="72" font-weight="850" fill="#15272d" font-family="Inter, Arial, sans-serif">gifts without</text>
<text x="72" y="1113" font-size="72" font-weight="850" fill="#15272d" font-family="Inter, Arial, sans-serif">guessing</text>
<text x="72" y="1211" font-size="32" font-weight="570" fill="#33494f" font-family="Inter, Arial, sans-serif">Create a simple birthday wishlist</text>
<text x="72" y="1250" font-size="32" font-weight="570" fill="#33494f" font-family="Inter, Arial, sans-serif">for toys, books, and ideas that</text>
<text x="72" y="1289" font-size="32" font-weight="570" fill="#33494f" font-family="Inter, Arial, sans-serif">fit.</text>
<g filter="url(#shadow-kids)"><rect x="72" y="1378" width="251" height="64" rx="32" fill="#ffffff"/></g><text x="102" y="1420" font-size="31" font-weight="800" fill="#15272d" font-family="Inter, Arial, sans-serif">Wishees.com</text>
</svg>