<?xml version="1.0" encoding="UTF-8"?>
<svg xmlns="http://www.w3.org/2000/svg" width="1000" height="1500" viewBox="0 0 1000 1500">
  <defs>
    <linearGradient id="bg" x1="0" y1="0" x2="0" y2="1">
      <stop offset="0" stop-color="#fff9ed"/>
      <stop offset="1" stop-color="#eef7f4"/>
    </linearGradient>
    <filter id="shadow" x="-20%" y="-20%" width="140%" height="140%">
      <feDropShadow dx="0" dy="22" stdDeviation="22" flood-color="#253238" flood-opacity="0.16"/>
    </filter>
  </defs>
  <rect width="1000" height="1500" fill="url(#bg)"/>
  <rect x="0" y="0" width="1000" height="360" fill="#f7cf92"/>
  <path d="M0 328 C180 390 300 294 468 352 C640 412 770 344 1000 398 L1000 0 L0 0 Z" fill="#6fb7ad" opacity="0.92"/>
  <g filter="url(#shadow)">
    <rect x="72" y="64" width="58" height="58" rx="18" fill="#ffffff"/>
    <text x="101" y="105" text-anchor="middle" font-size="34" font-weight="900" fill="#e14f6f" font-family="Inter, Arial, sans-serif">W</text>
  </g>
  <text x="148" y="105" font-size="34" font-weight="800" fill="#15272d" font-family="Inter, Arial, sans-serif">Wishees</text>
  <g filter="url(#shadow)">
    <rect x="112" y="324" width="776" height="440" rx="36" fill="#ffffff"/>
    <rect x="160" y="382" width="300" height="54" rx="14" fill="#e14f6f" opacity="0.16"/>
    <rect x="160" y="468" width="610" height="28" rx="14" fill="#33494f" opacity="0.13"/>
    <rect x="160" y="526" width="520" height="28" rx="14" fill="#33494f" opacity="0.13"/>
    <rect x="160" y="615" width="255" height="78" rx="22" fill="#6fb7ad"/>
    <rect x="456" y="615" width="255" height="78" rx="22" fill="#f7cf92"/>
    <path d="M780 640 L842 690 L780 740 Z" fill="#e14f6f"/>
  </g>
  <g filter="url(#shadow)">
    <rect x="108" y="790" width="170" height="150" rx="24" fill="#e14f6f"/>
    <rect x="177" y="790" width="28" height="150" fill="#ffffff" opacity="0.84"/>
    <rect x="108" y="854" width="170" height="24" fill="#ffffff" opacity="0.84"/>
    <rect x="724" y="790" width="170" height="150" rx="24" fill="#6fb7ad"/>
    <rect x="793" y="790" width="28" height="150" fill="#ffffff" opacity="0.84"/>
    <rect x="724" y="854" width="170" height="24" fill="#ffffff" opacity="0.84"/>
  </g>
  <text x="72" y="1022" font-size="30" font-weight="750" fill="#e14f6f" font-family="Inter, Arial, sans-serif">Grandparent gift ideas</text>
  <text x="72" y="1096" font-size="72" font-weight="850" fill="#15272d" font-family="Inter, Arial, sans-serif">When family asks</text>
  <text x="72" y="1172" font-size="72" font-weight="850" fill="#15272d" font-family="Inter, Arial, sans-serif">what to buy</text>
  <text x="72" y="1264" font-size="33" font-weight="570" fill="#33494f" font-family="Inter, Arial, sans-serif">Share one simple wishlist so</text>
  <text x="72" y="1304" font-size="33" font-weight="570" fill="#33494f" font-family="Inter, Arial, sans-serif">grandparents and relatives can</text>
  <text x="72" y="1344" font-size="33" font-weight="570" fill="#33494f" font-family="Inter, Arial, sans-serif">choose gifts that actually fit.</text>
  <g filter="url(#shadow)">
    <rect x="72" y="1390" width="251" height="64" rx="32" fill="#ffffff"/>
  </g>
  <text x="102" y="1432" font-size="31" font-weight="800" fill="#15272d" font-family="Inter, Arial, sans-serif">Wishees.com</text>
</svg>
