<?xml version="1.0" encoding="UTF-8"?>
<svg xmlns="http://www.w3.org/2000/svg" width="1000" height="1500" viewBox="0 0 1000 1500">
<defs><linearGradient id="bg-baby" x1="0" y1="0" x2="0" y2="1"><stop offset="0" stop-color="#f5fbff"/><stop offset="1" stop-color="#fff3f5"/></linearGradient><filter id="shadow-baby" x="-20%" y="-20%" width="140%" height="140%"><feDropShadow dx="0" dy="22" stdDeviation="22" flood-color="#263036" flood-opacity="0.18"/></filter><filter id="shadow-gift" x="-20%" y="-20%" width="140%" height="140%"><feDropShadow dx="0" dy="20" stdDeviation="20" flood-color="#263036" flood-opacity="0.16"/></filter></defs>
<rect width="1000" height="1500" fill="url(#bg-baby)"/><circle cx="170" cy="480" r="310" fill="#a9d7e8" opacity="0.95"/><circle cx="840" cy="590" r="250" fill="#f5becb" opacity="0.92"/>
<g filter="url(#shadow-baby)"><rect x="72" y="64" width="58" height="58" rx="18" fill="#ffffff"/><text x="101" y="105" text-anchor="middle" font-size="34" font-weight="900" fill="#e14f6f" font-family="Inter, Arial, sans-serif">W</text></g><text x="148" y="105" font-size="34" font-weight="800" fill="#15272d" font-family="Inter, Arial, sans-serif">Wishees</text>
<circle cx="472" cy="375" r="105" fill="#fff4a8"/><circle cx="522" cy="355" r="105" fill="#f5fbff"/><g transform="translate(150 470) rotate(-7 140 120)" filter="url(#shadow-gift)"><rect width="280" height="240" rx="26" fill="#7dbad2"/><rect x="117.6" width="44.800000000000004" height="240" fill="#ffffff" opacity="0.82"/><rect y="100.8" width="280" height="38.4" fill="#ffffff" opacity="0.82"/></g><g transform="translate(588 560) rotate(6 120 110)" filter="url(#shadow-gift)"><rect width="240" height="220" rx="26" fill="#f08ca5"/><rect x="100.8" width="38.4" height="220" fill="#ffffff" opacity="0.82"/><rect y="92.39999999999999" width="240" height="35.2" fill="#ffffff" opacity="0.82"/></g>
<text x="72" y="890" font-size="30" font-weight="750" fill="#e14f6f" font-family="Inter, Arial, sans-serif">Baby shower wishlist</text>
<text x="72" y="965" font-size="70" font-weight="850" fill="#15272d" font-family="Inter, Arial, sans-serif">Share newborn</text>
<text x="72" y="1039" font-size="70" font-weight="850" fill="#15272d" font-family="Inter, Arial, sans-serif">essentials in one</text>
<text x="72" y="1113" font-size="70" font-weight="850" fill="#15272d" font-family="Inter, Arial, sans-serif">easy list</text>
<text x="72" y="1211" font-size="32" font-weight="570" fill="#33494f" font-family="Inter, Arial, sans-serif">Books, diapers, nursery basics,</text>
<text x="72" y="1250" font-size="32" font-weight="570" fill="#33494f" font-family="Inter, Arial, sans-serif">and help for new parents in one</text>
<text x="72" y="1289" font-size="32" font-weight="570" fill="#33494f" font-family="Inter, Arial, sans-serif">link.</text>
<g filter="url(#shadow-baby)"><rect x="72" y="1378" width="251" height="64" rx="32" fill="#ffffff"/></g><text x="102" y="1420" font-size="31" font-weight="800" fill="#15272d" font-family="Inter, Arial, sans-serif">Wishees.com</text>
</svg>