<?xml version="1.0" encoding="UTF-8"?>
<svg xmlns="http://www.w3.org/2000/svg" width="1080" height="1920" viewBox="0 0 1080 1920">
<defs><linearGradient id="bg" x1="0" y1="0" x2="0" y2="1"><stop offset="0" stop-color="#f5fbff"/><stop offset="1" stop-color="#fff3f5"/></linearGradient><filter id="shadow" x="-25%" y="-25%" width="150%" height="150%"><feDropShadow dx="0" dy="24" stdDeviation="22" flood-color="#263036" flood-opacity="0.18"/></filter></defs>
<rect width="1080" height="1920" fill="url(#bg)"/><circle cx="160" cy="470" r="345" fill="#a9d7e8" opacity=".94"/><circle cx="950" cy="710" r="315" fill="#f5becb" opacity=".9"/>
<g filter="url(#shadow)"><rect x="80" y="80" width="70" height="70" rx="21" fill="#fff"/><text x="115" y="129" text-anchor="middle" font-size="42" font-weight="900" fill="#e14f6f" font-family="Inter, Arial, sans-serif">W</text></g><text x="170" y="128" font-size="42" font-weight="850" fill="#15272d" font-family="Inter, Arial, sans-serif">Wishees</text>
<circle cx="510" cy="390" r="125" fill="#fff4a8"/><circle cx="570" cy="368" r="125" fill="#f5fbff"/><g transform="translate(170 520) rotate(-7 157.5 132.5)" filter="url(#shadow)"><rect width="315" height="265" rx="34" fill="#7dbad2"/><rect x="135.45" width="44.1" height="265" fill="#fff" opacity=".82"/><rect y="113.95" width="315" height="37.1" fill="#fff" opacity=".82"/></g><g transform="translate(620 600) rotate(7 135 122.5)" filter="url(#shadow)"><rect width="270" height="245" rx="34" fill="#f08ca5"/><rect x="116.1" width="37.800000000000004" height="245" fill="#fff" opacity=".82"/><rect y="105.35" width="270" height="34.300000000000004" fill="#fff" opacity=".82"/></g>
<text x="80" y="1015" text-anchor="start" font-size="34" font-weight="800" fill="#e14f6f" font-family="Inter, Arial, sans-serif">Baby shower wishlists</text>
<text x="80" y="1150" text-anchor="start" font-size="88" font-weight="880" fill="#15272d" font-family="Inter, Arial, sans-serif">Put essentials</text>
<text x="80" y="1242" text-anchor="start" font-size="88" font-weight="880" fill="#15272d" font-family="Inter, Arial, sans-serif">in one easy</text>
<text x="80" y="1334" text-anchor="start" font-size="88" font-weight="880" fill="#15272d" font-family="Inter, Arial, sans-serif">list</text>
<text x="80" y="1535" text-anchor="start" font-size="40" font-weight="620" fill="#33494f" font-family="Inter, Arial, sans-serif">Books, diapers, nursery basics,</text>
<text x="80" y="1585" text-anchor="start" font-size="40" font-weight="620" fill="#33494f" font-family="Inter, Arial, sans-serif">and help for new parents in one</text>
<text x="80" y="1635" text-anchor="start" font-size="40" font-weight="620" fill="#33494f" font-family="Inter, Arial, sans-serif">shareable link.</text>
<g filter="url(#shadow)"><rect x="80" y="1735" width="298" height="76" rx="38" fill="#fff"/></g><text x="116" y="1786" font-size="36" font-weight="850" fill="#15272d" font-family="Inter, Arial, sans-serif">Wishees.com</text>
</svg>