<?xml version="1.0" encoding="UTF-8"?>
<svg xmlns="http://www.w3.org/2000/svg" width="1080" height="1920" viewBox="0 0 1080 1920">
<defs><linearGradient id="bg" x1="0" y1="0" x2="0" y2="1"><stop offset="0" stop-color="#eef7f5"/><stop offset="1" stop-color="#fff6ec"/></linearGradient><filter id="shadow" x="-25%" y="-25%" width="150%" height="150%"><feDropShadow dx="0" dy="24" stdDeviation="22" flood-color="#263036" flood-opacity="0.18"/></filter></defs>
<rect width="1080" height="1920" fill="url(#bg)"/><circle cx="160" cy="470" r="345" fill="#8fcab9" opacity=".94"/><circle cx="950" cy="710" r="315" fill="#f3b46f" opacity=".9"/>
<g filter="url(#shadow)"><rect x="80" y="80" width="70" height="70" rx="21" fill="#fff"/><text x="115" y="129" text-anchor="middle" font-size="42" font-weight="900" fill="#e14f6f" font-family="Inter, Arial, sans-serif">W</text></g><text x="170" y="128" font-size="42" font-weight="850" fill="#15272d" font-family="Inter, Arial, sans-serif">Wishees</text>
<g filter="url(#shadow)"><rect x="175" y="420" width="730" height="390" rx="42" fill="#23353a"/><rect x="220" y="465" width="640" height="300" rx="26" fill="#fff"/><rect x="300" y="550" width="390" height="30" rx="15" fill="#d9e8e4"/><rect x="300" y="615" width="500" height="30" rx="15" fill="#d9e8e4"/><rect x="300" y="680" width="320" height="30" rx="15" fill="#f1c994"/></g>
<text x="80" y="1015" text-anchor="start" font-size="34" font-weight="800" fill="#e14f6f" font-family="Inter, Arial, sans-serif">For gift guide creators</text>
<text x="80" y="1150" text-anchor="start" font-size="88" font-weight="880" fill="#15272d" font-family="Inter, Arial, sans-serif">Readers still</text>
<text x="80" y="1242" text-anchor="start" font-size="88" font-weight="880" fill="#15272d" font-family="Inter, Arial, sans-serif">need a wishlist</text>
<text x="80" y="1535" text-anchor="start" font-size="40" font-weight="620" fill="#33494f" font-family="Inter, Arial, sans-serif">Wishees gives gift guides a</text>
<text x="80" y="1585" text-anchor="start" font-size="40" font-weight="620" fill="#33494f" font-family="Inter, Arial, sans-serif">shareable wishlist layer. Your</text>
<text x="80" y="1635" text-anchor="start" font-size="40" font-weight="620" fill="#33494f" font-family="Inter, Arial, sans-serif">marketplace affiliate tags stay</text>
<text x="80" y="1685" text-anchor="start" font-size="40" font-weight="620" fill="#33494f" font-family="Inter, Arial, sans-serif">yours.</text>
<g filter="url(#shadow)"><rect x="80" y="1735" width="518" height="76" rx="38" fill="#fff"/></g><text x="116" y="1786" font-size="36" font-weight="850" fill="#15272d" font-family="Inter, Arial, sans-serif">Wishees.com/affiliate</text>
</svg>